<svg width="68" height="44" viewBox="0 0 68 44" version="1.1" xmlns="http://www.w3.org/2000/svg"><g stroke="none" stroke-width="1" fill="none" fill-rule="evenodd"><path d="M1.33 24.479a5.996 5.996 0 012.643-1.91c1.572-.574 2.466-2.218 2.166-3.88a9.11 9.11 0 011.832-7.305A8.92 8.92 0 0114.824 8H31.2v13.8h-8.588a8.92 8.92 0 01-7.29 4.317 3.517 3.517 0 00-3.324 3.027 6.107 6.107 0 01-1.798 3.547 5.921 5.921 0 01-7.389.753c-3.086-1.985-3.709-6.166-1.481-8.965" fill="#3C4043"/><path d="M56.042 20.157l5.968 4.918h5.19v5.145a3.032 3.032 0 01-3.036 3.029h-2.933c-1.399 0-2.754-.486-3.834-1.374l-3.487-2.87V44H31.2V18.4h19.943c1.789 0 3.52.621 4.9 1.757" fill="#FBBC04"/><path d="M41.433 14.794c-3.861 1.315-8.085-.671-9.433-4.435L45.984 5.6c1.348 3.764-.69 7.88-4.55 9.194" fill="#9AA0A6"/><path d="M36.167 1.206c3.861-1.315 8.085.67 9.433 4.435L31.616 10.4c-1.348-3.764.69-7.88 4.55-9.194" fill="#5F6368"/><path d="M26.177 1.187c3.868 1.288 5.94 5.413 4.63 9.213L16.8 5.735c1.311-3.8 5.51-5.837 9.377-4.548" fill="#3C4043"/><path d="M8 44h23.2V18.4H16.785C11.933 18.4 8 22.24 8 26.978V44z" fill="#4285F4"/><path d="M21.823 14.813c-3.868-1.288-5.94-5.413-4.63-9.213L31.2 10.265c-1.311 3.8-5.51 5.837-9.377 4.548M39.2 21.224c.82.829 2.15.829 2.97 0l.816-.826v2.958c0 1.086.426 2.127 1.186 2.895l2.52 2.549 2.522-2.55a4.116 4.116 0 001.186-2.894v-4.408c0-2.07-1.66-3.748-3.707-3.748-1.031 0-1.963.426-2.635 1.112L39.2 21.224z" fill="#5F6368"/><path stroke="#5F6368" stroke-width=".8" d="M14.4 43.2V28.8"/><path d="M17.6 17.6a2.22 2.22 0 01-2.22 2.22h-1.22l2.187 2.185a4.28 4.28 0 011.253 3.027V28.8h-3.768a4.28 4.28 0 01-3.027-1.253l-3.257-3.258a3.918 3.918 0 012.791-6.688V17.6H17.6zM65.6 24.782V17.6c1.325 0 2.4.98 2.4 2.189V24.8l-2.4-.018z" fill="#9AA0A6"/><path d="M60.379 22.4h4.842c.651 0 1.179-.51 1.179-1.14V9.94c0-.63-.528-1.14-1.179-1.14H60.38c-.651 0-1.179.51-1.179 1.14v11.32c0 .63.528 1.14 1.179 1.14" fill="#3C4043"/><path d="M57.6 18.261l.059-.12c.607-1.235 2.045-1.703 3.196-1.04l5.667 3.267L68 22.183v2.688c0 1.732-1.714 2.857-3.166 2.077l-3.828-2.055c-.737-.396-1.201-1.2-1.201-2.077v-3.197L57.6 18.261z" fill="#9AA0A6"/></g></svg>